<mxfile host="app.diagrams.net" agent="Mozilla/5.0 (Windows NT 10.0; Win64; x64) AppleWebKit/537.36 (KHTML, like Gecko) Chrome/129.0.0.0 Safari/537.36" version="24.7.17">
  <diagram name="第 1 页" id="R8lSAh_ms-Js-fD9iYkR">
    <mxGraphModel dx="712" dy="814" grid="1" gridSize="10" guides="1" tooltips="1" connect="1" arrows="1" fold="1" page="1" pageScale="1" pageWidth="827" pageHeight="1169" math="0" shadow="0">
      <root>
        <mxCell id="0" />
        <mxCell id="1" parent="0" />
        <mxCell id="kH9MLhwengYHdYV4Ar4A-25" value="" style="group" vertex="1" connectable="0" parent="1">
          <mxGeometry x="90" y="70" width="400" height="690" as="geometry" />
        </mxCell>
        <mxCell id="D8Kj4qU78no7kVrKuZ1o-30" value="" style="rounded=1;whiteSpace=wrap;html=1;fillColor=#dae8fc;strokeColor=#6c8ebf;" parent="kH9MLhwengYHdYV4Ar4A-25" vertex="1">
          <mxGeometry y="500" width="400" height="190" as="geometry" />
        </mxCell>
        <mxCell id="D8Kj4qU78no7kVrKuZ1o-2" value="" style="rounded=1;whiteSpace=wrap;html=1;fillColor=#dae8fc;strokeColor=#6c8ebf;imageWidth=24;arcSize=7;textShadow=0;strokeWidth=2;" parent="kH9MLhwengYHdYV4Ar4A-25" vertex="1">
          <mxGeometry width="400" height="490" as="geometry" />
        </mxCell>
        <mxCell id="D8Kj4qU78no7kVrKuZ1o-3" value="&lt;b&gt;&lt;font style=&quot;font-size: 18px;&quot;&gt;JVM内存&lt;/font&gt;&lt;/b&gt;" style="text;html=1;align=center;verticalAlign=middle;whiteSpace=wrap;rounded=0;" parent="kH9MLhwengYHdYV4Ar4A-25" vertex="1">
          <mxGeometry x="160" width="80" height="30" as="geometry" />
        </mxCell>
        <mxCell id="D8Kj4qU78no7kVrKuZ1o-17" value="" style="rounded=0;whiteSpace=wrap;html=1;fillColor=#d5e8d4;strokeColor=#82b366;strokeWidth=2;dashed=1;dashPattern=8 8;" parent="kH9MLhwengYHdYV4Ar4A-25" vertex="1">
          <mxGeometry x="20" y="40" width="360" height="260" as="geometry" />
        </mxCell>
        <mxCell id="D8Kj4qU78no7kVrKuZ1o-4" value="" style="rounded=1;whiteSpace=wrap;html=1;" parent="kH9MLhwengYHdYV4Ar4A-25" vertex="1">
          <mxGeometry x="30" y="50" width="150" height="210" as="geometry" />
        </mxCell>
        <mxCell id="D8Kj4qU78no7kVrKuZ1o-5" value="&lt;span style=&quot;font-size: 14px;&quot;&gt;&lt;b&gt;线程1&lt;/b&gt;&lt;/span&gt;" style="text;html=1;align=center;verticalAlign=middle;whiteSpace=wrap;rounded=0;" parent="kH9MLhwengYHdYV4Ar4A-25" vertex="1">
          <mxGeometry x="30" y="50" width="80" height="30" as="geometry" />
        </mxCell>
        <mxCell id="D8Kj4qU78no7kVrKuZ1o-8" value="&lt;b&gt;&lt;font&gt;虚拟机栈&lt;/font&gt;&lt;/b&gt;" style="rounded=1;whiteSpace=wrap;html=1;fillColor=#1ba1e2;fontColor=#FFFFFF;strokeColor=#006EAF;" parent="kH9MLhwengYHdYV4Ar4A-25" vertex="1">
          <mxGeometry x="45" y="90" width="120" height="40" as="geometry" />
        </mxCell>
        <mxCell id="D8Kj4qU78no7kVrKuZ1o-9" value="&lt;b&gt;本地方法栈&lt;/b&gt;" style="rounded=1;whiteSpace=wrap;html=1;fillColor=#fa6800;fontColor=#FFFFFF;strokeColor=#C73500;" parent="kH9MLhwengYHdYV4Ar4A-25" vertex="1">
          <mxGeometry x="45" y="145" width="120" height="40" as="geometry" />
        </mxCell>
        <mxCell id="D8Kj4qU78no7kVrKuZ1o-10" value="&lt;b&gt;程序计数器&lt;/b&gt;" style="rounded=1;whiteSpace=wrap;html=1;fillColor=#e3c800;fontColor=#FFFFFF;strokeColor=#B09500;" parent="kH9MLhwengYHdYV4Ar4A-25" vertex="1">
          <mxGeometry x="45" y="200" width="120" height="40" as="geometry" />
        </mxCell>
        <mxCell id="D8Kj4qU78no7kVrKuZ1o-11" value="" style="rounded=1;whiteSpace=wrap;html=1;" parent="kH9MLhwengYHdYV4Ar4A-25" vertex="1">
          <mxGeometry x="220" y="50" width="150" height="210" as="geometry" />
        </mxCell>
        <mxCell id="D8Kj4qU78no7kVrKuZ1o-12" value="&lt;span style=&quot;font-size: 14px;&quot;&gt;&lt;b&gt;线程2&lt;/b&gt;&lt;/span&gt;" style="text;html=1;align=center;verticalAlign=middle;whiteSpace=wrap;rounded=0;" parent="kH9MLhwengYHdYV4Ar4A-25" vertex="1">
          <mxGeometry x="220" y="50" width="80" height="30" as="geometry" />
        </mxCell>
        <mxCell id="D8Kj4qU78no7kVrKuZ1o-13" value="&lt;b&gt;虚拟机栈&lt;/b&gt;" style="rounded=1;whiteSpace=wrap;html=1;fillColor=#1ba1e2;fontColor=#FFFFFF;strokeColor=#006EAF;" parent="kH9MLhwengYHdYV4Ar4A-25" vertex="1">
          <mxGeometry x="235" y="90" width="120" height="40" as="geometry" />
        </mxCell>
        <mxCell id="D8Kj4qU78no7kVrKuZ1o-14" value="&lt;b&gt;本地方法栈&lt;/b&gt;" style="rounded=1;whiteSpace=wrap;html=1;fillColor=#fa6800;fontColor=#FFFFFF;strokeColor=#C73500;" parent="kH9MLhwengYHdYV4Ar4A-25" vertex="1">
          <mxGeometry x="235" y="145" width="120" height="40" as="geometry" />
        </mxCell>
        <mxCell id="D8Kj4qU78no7kVrKuZ1o-15" value="&lt;b&gt;程序计数器&lt;/b&gt;" style="rounded=1;whiteSpace=wrap;html=1;fillColor=#e3c800;fontColor=#FFFFFF;strokeColor=#B09500;" parent="kH9MLhwengYHdYV4Ar4A-25" vertex="1">
          <mxGeometry x="235" y="200" width="120" height="40" as="geometry" />
        </mxCell>
        <mxCell id="D8Kj4qU78no7kVrKuZ1o-18" value="&lt;span style=&quot;font-size: 14px;&quot;&gt;&lt;b&gt;&lt;font color=&quot;#ff3333&quot;&gt;线程私有&lt;/font&gt;&lt;/b&gt;&lt;/span&gt;" style="text;html=1;align=center;verticalAlign=middle;whiteSpace=wrap;rounded=0;" parent="kH9MLhwengYHdYV4Ar4A-25" vertex="1">
          <mxGeometry x="160" y="270" width="80" height="30" as="geometry" />
        </mxCell>
        <mxCell id="D8Kj4qU78no7kVrKuZ1o-21" value="" style="rounded=0;whiteSpace=wrap;html=1;fillColor=#b0e3e6;strokeColor=#0e8088;dashed=1;strokeWidth=2;" parent="kH9MLhwengYHdYV4Ar4A-25" vertex="1">
          <mxGeometry x="50" y="310" width="300" height="150" as="geometry" />
        </mxCell>
        <mxCell id="D8Kj4qU78no7kVrKuZ1o-20" value="&lt;span style=&quot;font-size: 14px;&quot;&gt;&lt;b&gt;&lt;font color=&quot;#ff3333&quot;&gt;线程共享&lt;/font&gt;&lt;/b&gt;&lt;/span&gt;" style="text;html=1;align=center;verticalAlign=middle;whiteSpace=wrap;rounded=0;" parent="kH9MLhwengYHdYV4Ar4A-25" vertex="1">
          <mxGeometry x="160" y="310" width="80" height="30" as="geometry" />
        </mxCell>
        <mxCell id="D8Kj4qU78no7kVrKuZ1o-23" value="" style="rounded=1;whiteSpace=wrap;html=1;fillColor=#fad7ac;strokeColor=#b46504;" parent="kH9MLhwengYHdYV4Ar4A-25" vertex="1">
          <mxGeometry x="35" y="551" width="150" height="120" as="geometry" />
        </mxCell>
        <mxCell id="D8Kj4qU78no7kVrKuZ1o-25" value="" style="rounded=1;whiteSpace=wrap;html=1;fillColor=#bac8d3;strokeColor=#23445d;" parent="kH9MLhwengYHdYV4Ar4A-25" vertex="1">
          <mxGeometry x="220" y="580" width="150" height="60" as="geometry" />
        </mxCell>
        <mxCell id="D8Kj4qU78no7kVrKuZ1o-26" value="" style="rounded=1;whiteSpace=wrap;html=1;fillColor=#fad7ac;strokeColor=#b46504;" parent="kH9MLhwengYHdYV4Ar4A-25" vertex="1">
          <mxGeometry x="20" y="540" width="180" height="140" as="geometry" />
        </mxCell>
        <mxCell id="D8Kj4qU78no7kVrKuZ1o-27" value="&lt;span style=&quot;font-size: 14px;&quot;&gt;&lt;b&gt;元空间&lt;/b&gt;&lt;/span&gt;" style="text;html=1;align=center;verticalAlign=middle;whiteSpace=wrap;rounded=0;" parent="kH9MLhwengYHdYV4Ar4A-25" vertex="1">
          <mxGeometry x="70" y="540" width="80" height="30" as="geometry" />
        </mxCell>
        <mxCell id="D8Kj4qU78no7kVrKuZ1o-28" value="&lt;span style=&quot;font-size: 14px;&quot;&gt;&lt;b&gt;主存&lt;/b&gt;&lt;/span&gt;" style="text;html=1;align=center;verticalAlign=middle;whiteSpace=wrap;rounded=0;" parent="kH9MLhwengYHdYV4Ar4A-25" vertex="1">
          <mxGeometry x="255" y="595" width="80" height="30" as="geometry" />
        </mxCell>
        <mxCell id="D8Kj4qU78no7kVrKuZ1o-33" value="" style="group;fillColor=none;strokeColor=none;" parent="kH9MLhwengYHdYV4Ar4A-25" vertex="1" connectable="0">
          <mxGeometry x="60" y="340" width="280" height="111" as="geometry" />
        </mxCell>
        <mxCell id="D8Kj4qU78no7kVrKuZ1o-29" value="" style="rounded=1;whiteSpace=wrap;html=1;fillColor=#647687;strokeColor=#314354;fontColor=#ffffff;movable=0;resizable=0;rotatable=0;deletable=0;editable=0;locked=1;connectable=0;" parent="D8Kj4qU78no7kVrKuZ1o-33" vertex="1">
          <mxGeometry width="280" height="110" as="geometry" />
        </mxCell>
        <mxCell id="D8Kj4qU78no7kVrKuZ1o-31" value="&lt;span style=&quot;font-size: 14px;&quot;&gt;&lt;b&gt;&lt;font color=&quot;#ffffff&quot;&gt;堆&lt;/font&gt;&lt;/b&gt;&lt;/span&gt;" style="text;html=1;align=center;verticalAlign=middle;whiteSpace=wrap;rounded=0;movable=0;resizable=0;rotatable=0;deletable=0;editable=0;locked=1;connectable=0;" parent="D8Kj4qU78no7kVrKuZ1o-33" vertex="1">
          <mxGeometry width="80" height="30" as="geometry" />
        </mxCell>
        <mxCell id="D8Kj4qU78no7kVrKuZ1o-32" value="" style="rounded=1;whiteSpace=wrap;html=1;fillColor=#fad7ac;strokeColor=#b46504;" parent="D8Kj4qU78no7kVrKuZ1o-33" vertex="1">
          <mxGeometry x="27.5" y="30.5" width="225" height="50" as="geometry" />
        </mxCell>
        <mxCell id="D8Kj4qU78no7kVrKuZ1o-36" value="&lt;span style=&quot;font-size: 14px;&quot;&gt;&lt;b&gt;字符串常量池&lt;/b&gt;&lt;/span&gt;" style="text;html=1;align=center;verticalAlign=middle;whiteSpace=wrap;rounded=0;" parent="D8Kj4qU78no7kVrKuZ1o-33" vertex="1">
          <mxGeometry x="95" y="40" width="90" height="30" as="geometry" />
        </mxCell>
        <mxCell id="D8Kj4qU78no7kVrKuZ1o-34" value="&lt;b&gt;&lt;font style=&quot;font-size: 18px;&quot;&gt;本地内存&lt;/font&gt;&lt;/b&gt;" style="text;html=1;align=center;verticalAlign=middle;whiteSpace=wrap;rounded=0;" parent="kH9MLhwengYHdYV4Ar4A-25" vertex="1">
          <mxGeometry x="160" y="500" width="80" height="30" as="geometry" />
        </mxCell>
        <mxCell id="D8Kj4qU78no7kVrKuZ1o-37" value="常量池&lt;div&gt;（非字符串）&lt;/div&gt;" style="rounded=1;whiteSpace=wrap;html=1;fillColor=#bac8d3;strokeColor=#FFFFFF;fontStyle=1" parent="kH9MLhwengYHdYV4Ar4A-25" vertex="1">
          <mxGeometry x="35" y="625" width="150" height="45" as="geometry" />
        </mxCell>
        <mxCell id="D8Kj4qU78no7kVrKuZ1o-38" value="类的元信息&lt;div&gt;（类结构、方法）&lt;/div&gt;" style="rounded=1;whiteSpace=wrap;html=1;fillColor=#bac8d3;strokeColor=#FFFFFF;fontStyle=1" parent="kH9MLhwengYHdYV4Ar4A-25" vertex="1">
          <mxGeometry x="35" y="570" width="150" height="50" as="geometry" />
        </mxCell>
        <mxCell id="kH9MLhwengYHdYV4Ar4A-31" value="" style="group" vertex="1" connectable="0" parent="1">
          <mxGeometry x="60" y="880" width="570" height="486" as="geometry" />
        </mxCell>
        <mxCell id="PDrUq4Q-Q5MVaonfOiOn-1" value="" style="rounded=0;whiteSpace=wrap;html=1;fillColor=#647687;strokeColor=#314354;fontColor=#ffffff;" parent="kH9MLhwengYHdYV4Ar4A-31" vertex="1">
          <mxGeometry width="570" height="486" as="geometry" />
        </mxCell>
        <mxCell id="PDrUq4Q-Q5MVaonfOiOn-2" value="" style="rounded=0;whiteSpace=wrap;html=1;fillColor=#1ba1e2;fontColor=#ffffff;strokeColor=#006EAF;" parent="kH9MLhwengYHdYV4Ar4A-31" vertex="1">
          <mxGeometry x="30" y="30" width="230" height="216" as="geometry" />
        </mxCell>
        <mxCell id="PDrUq4Q-Q5MVaonfOiOn-4" value="线程操作" style="rounded=1;whiteSpace=wrap;html=1;fillColor=#dae8fc;strokeColor=#6c8ebf;" parent="kH9MLhwengYHdYV4Ar4A-31" vertex="1">
          <mxGeometry x="50" y="86" width="190" height="40" as="geometry" />
        </mxCell>
        <mxCell id="PDrUq4Q-Q5MVaonfOiOn-9" style="edgeStyle=orthogonalEdgeStyle;rounded=0;orthogonalLoop=1;jettySize=auto;html=1;exitX=0.684;exitY=0.1;exitDx=0;exitDy=0;exitPerimeter=0;strokeWidth=3;" parent="kH9MLhwengYHdYV4Ar4A-31" source="PDrUq4Q-Q5MVaonfOiOn-5" target="PDrUq4Q-Q5MVaonfOiOn-4" edge="1">
          <mxGeometry relative="1" as="geometry">
            <Array as="points">
              <mxPoint x="180" y="136" />
              <mxPoint x="180" y="136" />
            </Array>
          </mxGeometry>
        </mxCell>
        <mxCell id="PDrUq4Q-Q5MVaonfOiOn-5" value="" style="rounded=1;whiteSpace=wrap;html=1;fillColor=#f8cecc;strokeColor=#b85450;" parent="kH9MLhwengYHdYV4Ar4A-31" vertex="1">
          <mxGeometry x="50" y="186" width="190" height="40" as="geometry" />
        </mxCell>
        <mxCell id="PDrUq4Q-Q5MVaonfOiOn-7" style="edgeStyle=orthogonalEdgeStyle;rounded=0;orthogonalLoop=1;jettySize=auto;html=1;exitX=0.25;exitY=1;exitDx=0;exitDy=0;strokeWidth=3;" parent="kH9MLhwengYHdYV4Ar4A-31" source="PDrUq4Q-Q5MVaonfOiOn-4" edge="1">
          <mxGeometry relative="1" as="geometry">
            <mxPoint x="81" y="126" as="sourcePoint" />
            <mxPoint x="98" y="186" as="targetPoint" />
            <Array as="points">
              <mxPoint x="98" y="186" />
            </Array>
          </mxGeometry>
        </mxCell>
        <mxCell id="PDrUq4Q-Q5MVaonfOiOn-14" value="&lt;font size=&quot;1&quot; color=&quot;#ffffff&quot;&gt;&lt;b style=&quot;font-size: 14px;&quot;&gt;write&lt;/b&gt;&lt;/font&gt;" style="rounded=1;whiteSpace=wrap;html=1;fillColor=#f0a30a;fontColor=#000000;strokeColor=#BD7000;" parent="kH9MLhwengYHdYV4Ar4A-31" vertex="1">
          <mxGeometry x="45" y="146" width="45" height="20" as="geometry" />
        </mxCell>
        <mxCell id="PDrUq4Q-Q5MVaonfOiOn-15" value="&lt;font size=&quot;1&quot; color=&quot;#ffffff&quot;&gt;&lt;b style=&quot;font-size: 14px;&quot;&gt;read&lt;/b&gt;&lt;/font&gt;" style="rounded=1;whiteSpace=wrap;html=1;fillColor=#f0a30a;fontColor=#000000;strokeColor=#BD7000;" parent="kH9MLhwengYHdYV4Ar4A-31" vertex="1">
          <mxGeometry x="190" y="146" width="45" height="20" as="geometry" />
        </mxCell>
        <mxCell id="kH9MLhwengYHdYV4Ar4A-1" value="&lt;font color=&quot;#ffffff&quot;&gt;线程A&lt;/font&gt;" style="text;html=1;align=center;verticalAlign=middle;whiteSpace=wrap;rounded=0;fontSize=16;" vertex="1" parent="kH9MLhwengYHdYV4Ar4A-31">
          <mxGeometry x="115" y="30" width="60" height="30" as="geometry" />
        </mxCell>
        <mxCell id="kH9MLhwengYHdYV4Ar4A-2" value="线程工作内存" style="text;html=1;align=center;verticalAlign=middle;whiteSpace=wrap;rounded=0;fontSize=16;" vertex="1" parent="kH9MLhwengYHdYV4Ar4A-31">
          <mxGeometry x="40" y="191" width="130" height="30" as="geometry" />
        </mxCell>
        <mxCell id="kH9MLhwengYHdYV4Ar4A-3" value="变量副本" style="rounded=1;whiteSpace=wrap;html=1;fillColor=#647687;fontColor=#ffffff;strokeColor=#314354;" vertex="1" parent="kH9MLhwengYHdYV4Ar4A-31">
          <mxGeometry x="170" y="191" width="60" height="30" as="geometry" />
        </mxCell>
        <mxCell id="kH9MLhwengYHdYV4Ar4A-4" value="" style="rounded=0;whiteSpace=wrap;html=1;fillColor=#1ba1e2;fontColor=#ffffff;strokeColor=#006EAF;" vertex="1" parent="kH9MLhwengYHdYV4Ar4A-31">
          <mxGeometry x="310" y="30" width="230" height="216" as="geometry" />
        </mxCell>
        <mxCell id="kH9MLhwengYHdYV4Ar4A-5" value="线程操作" style="rounded=1;whiteSpace=wrap;html=1;fillColor=#dae8fc;strokeColor=#6c8ebf;" vertex="1" parent="kH9MLhwengYHdYV4Ar4A-31">
          <mxGeometry x="330" y="86" width="190" height="40" as="geometry" />
        </mxCell>
        <mxCell id="kH9MLhwengYHdYV4Ar4A-6" style="edgeStyle=orthogonalEdgeStyle;rounded=0;orthogonalLoop=1;jettySize=auto;html=1;exitX=0.684;exitY=0.1;exitDx=0;exitDy=0;exitPerimeter=0;strokeWidth=3;" edge="1" parent="kH9MLhwengYHdYV4Ar4A-31" source="kH9MLhwengYHdYV4Ar4A-7" target="kH9MLhwengYHdYV4Ar4A-5">
          <mxGeometry relative="1" as="geometry">
            <Array as="points">
              <mxPoint x="460" y="136" />
              <mxPoint x="460" y="136" />
            </Array>
          </mxGeometry>
        </mxCell>
        <mxCell id="kH9MLhwengYHdYV4Ar4A-7" value="" style="rounded=1;whiteSpace=wrap;html=1;fillColor=#f8cecc;strokeColor=#b85450;" vertex="1" parent="kH9MLhwengYHdYV4Ar4A-31">
          <mxGeometry x="330" y="186" width="190" height="40" as="geometry" />
        </mxCell>
        <mxCell id="kH9MLhwengYHdYV4Ar4A-8" style="edgeStyle=orthogonalEdgeStyle;rounded=0;orthogonalLoop=1;jettySize=auto;html=1;exitX=0.25;exitY=1;exitDx=0;exitDy=0;strokeWidth=3;" edge="1" parent="kH9MLhwengYHdYV4Ar4A-31" source="kH9MLhwengYHdYV4Ar4A-5">
          <mxGeometry relative="1" as="geometry">
            <mxPoint x="361" y="126" as="sourcePoint" />
            <mxPoint x="378" y="186" as="targetPoint" />
            <Array as="points">
              <mxPoint x="378" y="186" />
            </Array>
          </mxGeometry>
        </mxCell>
        <mxCell id="kH9MLhwengYHdYV4Ar4A-9" value="&lt;font size=&quot;1&quot; color=&quot;#ffffff&quot;&gt;&lt;b style=&quot;font-size: 14px;&quot;&gt;write&lt;/b&gt;&lt;/font&gt;" style="rounded=1;whiteSpace=wrap;html=1;fillColor=#f0a30a;fontColor=#000000;strokeColor=#BD7000;" vertex="1" parent="kH9MLhwengYHdYV4Ar4A-31">
          <mxGeometry x="325" y="146" width="45" height="20" as="geometry" />
        </mxCell>
        <mxCell id="kH9MLhwengYHdYV4Ar4A-10" value="&lt;font size=&quot;1&quot; color=&quot;#ffffff&quot;&gt;&lt;b style=&quot;font-size: 14px;&quot;&gt;read&lt;/b&gt;&lt;/font&gt;" style="rounded=1;whiteSpace=wrap;html=1;fillColor=#f0a30a;fontColor=#000000;strokeColor=#BD7000;" vertex="1" parent="kH9MLhwengYHdYV4Ar4A-31">
          <mxGeometry x="470" y="146" width="45" height="20" as="geometry" />
        </mxCell>
        <mxCell id="kH9MLhwengYHdYV4Ar4A-11" value="&lt;font color=&quot;#ffffff&quot;&gt;线程B&lt;/font&gt;" style="text;html=1;align=center;verticalAlign=middle;whiteSpace=wrap;rounded=0;fontSize=16;" vertex="1" parent="kH9MLhwengYHdYV4Ar4A-31">
          <mxGeometry x="395" y="30" width="60" height="30" as="geometry" />
        </mxCell>
        <mxCell id="kH9MLhwengYHdYV4Ar4A-12" value="线程工作内存" style="text;html=1;align=center;verticalAlign=middle;whiteSpace=wrap;rounded=0;fontSize=16;" vertex="1" parent="kH9MLhwengYHdYV4Ar4A-31">
          <mxGeometry x="320" y="191" width="130" height="30" as="geometry" />
        </mxCell>
        <mxCell id="kH9MLhwengYHdYV4Ar4A-13" value="变量副本" style="rounded=1;whiteSpace=wrap;html=1;fillColor=#647687;fontColor=#ffffff;strokeColor=#314354;" vertex="1" parent="kH9MLhwengYHdYV4Ar4A-31">
          <mxGeometry x="450" y="191" width="60" height="30" as="geometry" />
        </mxCell>
        <mxCell id="kH9MLhwengYHdYV4Ar4A-22" style="edgeStyle=none;curved=1;rounded=0;orthogonalLoop=1;jettySize=auto;html=1;entryX=0.5;entryY=0;entryDx=0;entryDy=0;fontSize=12;startSize=8;endSize=8;" edge="1" parent="kH9MLhwengYHdYV4Ar4A-31" source="kH9MLhwengYHdYV4Ar4A-14" target="kH9MLhwengYHdYV4Ar4A-15">
          <mxGeometry relative="1" as="geometry" />
        </mxCell>
        <mxCell id="kH9MLhwengYHdYV4Ar4A-14" value="&lt;b&gt;&lt;font style=&quot;font-size: 14px;&quot;&gt;JMM&lt;/font&gt;&lt;/b&gt;" style="rounded=0;whiteSpace=wrap;html=1;" vertex="1" parent="kH9MLhwengYHdYV4Ar4A-31">
          <mxGeometry x="130" y="296" width="310" height="40" as="geometry" />
        </mxCell>
        <mxCell id="kH9MLhwengYHdYV4Ar4A-15" value="" style="rounded=0;whiteSpace=wrap;html=1;fillColor=#e3c800;fontColor=#000000;strokeColor=#B09500;" vertex="1" parent="kH9MLhwengYHdYV4Ar4A-31">
          <mxGeometry x="130" y="406" width="310" height="40" as="geometry" />
        </mxCell>
        <mxCell id="kH9MLhwengYHdYV4Ar4A-18" value="" style="endArrow=classic;html=1;rounded=0;fontSize=12;startSize=8;endSize=8;edgeStyle=orthogonalEdgeStyle;exitX=0.5;exitY=1;exitDx=0;exitDy=0;entryX=0.5;entryY=0;entryDx=0;entryDy=0;" edge="1" parent="kH9MLhwengYHdYV4Ar4A-31" source="PDrUq4Q-Q5MVaonfOiOn-5" target="kH9MLhwengYHdYV4Ar4A-14">
          <mxGeometry width="50" height="50" relative="1" as="geometry">
            <mxPoint x="60" y="326" as="sourcePoint" />
            <mxPoint x="110" y="276" as="targetPoint" />
          </mxGeometry>
        </mxCell>
        <mxCell id="kH9MLhwengYHdYV4Ar4A-21" value="" style="endArrow=classic;html=1;rounded=0;fontSize=12;startSize=8;endSize=8;entryX=0.5;entryY=0;entryDx=0;entryDy=0;edgeStyle=orthogonalEdgeStyle;exitX=0.5;exitY=1;exitDx=0;exitDy=0;" edge="1" parent="kH9MLhwengYHdYV4Ar4A-31" source="kH9MLhwengYHdYV4Ar4A-7" target="kH9MLhwengYHdYV4Ar4A-14">
          <mxGeometry width="50" height="50" relative="1" as="geometry">
            <mxPoint x="430" y="236" as="sourcePoint" />
            <mxPoint x="480" y="186" as="targetPoint" />
          </mxGeometry>
        </mxCell>
        <mxCell id="kH9MLhwengYHdYV4Ar4A-23" value="主内存" style="text;html=1;align=center;verticalAlign=middle;whiteSpace=wrap;rounded=0;fontSize=16;" vertex="1" parent="kH9MLhwengYHdYV4Ar4A-31">
          <mxGeometry x="130" y="411" width="90" height="30" as="geometry" />
        </mxCell>
        <mxCell id="kH9MLhwengYHdYV4Ar4A-24" value="变量" style="rounded=1;whiteSpace=wrap;html=1;fillColor=#647687;strokeColor=#314354;fontColor=#ffffff;" vertex="1" parent="kH9MLhwengYHdYV4Ar4A-31">
          <mxGeometry x="255" y="411" width="60" height="30" as="geometry" />
        </mxCell>
        <mxCell id="kH9MLhwengYHdYV4Ar4A-26" value="&lt;font size=&quot;1&quot; color=&quot;#ffffff&quot;&gt;&lt;b style=&quot;font-size: 14px;&quot;&gt;write&amp;amp;read&lt;/b&gt;&lt;/font&gt;" style="rounded=1;whiteSpace=wrap;html=1;fillColor=#f0a30a;fontColor=#000000;strokeColor=#BD7000;" vertex="1" parent="kH9MLhwengYHdYV4Ar4A-31">
          <mxGeometry x="241.25" y="251" width="87.5" height="20" as="geometry" />
        </mxCell>
        <mxCell id="kH9MLhwengYHdYV4Ar4A-30" value="&lt;font size=&quot;1&quot; color=&quot;#ffffff&quot;&gt;&lt;b style=&quot;font-size: 14px;&quot;&gt;sync&amp;amp;read&lt;/b&gt;&lt;/font&gt;" style="rounded=1;whiteSpace=wrap;html=1;fillColor=#f0a30a;fontColor=#000000;strokeColor=#BD7000;" vertex="1" parent="kH9MLhwengYHdYV4Ar4A-31">
          <mxGeometry x="239.5" y="356" width="87.5" height="20" as="geometry" />
        </mxCell>
        <mxCell id="kH9MLhwengYHdYV4Ar4A-32" value="&lt;b&gt;&lt;font style=&quot;font-size: 16px;&quot;&gt;共享资源&lt;/font&gt;&lt;/b&gt;" style="rounded=0;whiteSpace=wrap;html=1;fillColor=#60a917;fontColor=#ffffff;strokeColor=#2D7600;" vertex="1" parent="1">
          <mxGeometry x="360" y="1430" width="120" height="60" as="geometry" />
        </mxCell>
        <mxCell id="kH9MLhwengYHdYV4Ar4A-35" value="" style="edgeStyle=none;curved=1;rounded=0;orthogonalLoop=1;jettySize=auto;html=1;fontSize=12;startSize=8;endSize=8;" edge="1" parent="1">
          <mxGeometry relative="1" as="geometry">
            <mxPoint x="235" y="1630" as="sourcePoint" />
            <mxPoint x="310" y="1630" as="targetPoint" />
          </mxGeometry>
        </mxCell>
        <mxCell id="kH9MLhwengYHdYV4Ar4A-47" style="edgeStyle=none;curved=1;rounded=0;orthogonalLoop=1;jettySize=auto;html=1;fontSize=12;startSize=8;endSize=8;" edge="1" parent="1" source="kH9MLhwengYHdYV4Ar4A-33">
          <mxGeometry relative="1" as="geometry">
            <mxPoint x="197.5" y="1730" as="targetPoint" />
          </mxGeometry>
        </mxCell>
        <mxCell id="kH9MLhwengYHdYV4Ar4A-52" style="edgeStyle=orthogonalEdgeStyle;rounded=0;orthogonalLoop=1;jettySize=auto;html=1;entryX=0.5;entryY=1;entryDx=0;entryDy=0;fontSize=12;startSize=8;endSize=8;curved=1;fillColor=#fad9d5;strokeColor=#ae4132;" edge="1" parent="1" source="kH9MLhwengYHdYV4Ar4A-33" target="kH9MLhwengYHdYV4Ar4A-32">
          <mxGeometry relative="1" as="geometry">
            <Array as="points">
              <mxPoint x="198" y="1540" />
              <mxPoint x="420" y="1540" />
            </Array>
          </mxGeometry>
        </mxCell>
        <mxCell id="kH9MLhwengYHdYV4Ar4A-33" value="线程x&lt;div&gt;（占用）&lt;/div&gt;" style="rounded=0;whiteSpace=wrap;html=1;fillColor=#fad9d5;strokeColor=#ae4132;" vertex="1" parent="1">
          <mxGeometry x="160" y="1590" width="75" height="100" as="geometry" />
        </mxCell>
        <mxCell id="kH9MLhwengYHdYV4Ar4A-37" value="" style="edgeStyle=none;curved=1;rounded=0;orthogonalLoop=1;jettySize=auto;html=1;fontSize=12;startSize=8;endSize=8;" edge="1" parent="1">
          <mxGeometry relative="1" as="geometry">
            <mxPoint x="385" y="1630" as="sourcePoint" />
            <mxPoint x="460" y="1630" as="targetPoint" />
          </mxGeometry>
        </mxCell>
        <mxCell id="kH9MLhwengYHdYV4Ar4A-45" style="edgeStyle=none;curved=1;rounded=0;orthogonalLoop=1;jettySize=auto;html=1;entryX=1;entryY=0.75;entryDx=0;entryDy=0;fontSize=12;startSize=8;endSize=8;exitX=0;exitY=0.75;exitDx=0;exitDy=0;" edge="1" parent="1">
          <mxGeometry relative="1" as="geometry">
            <mxPoint x="310" y="1661" as="sourcePoint" />
            <mxPoint x="235" y="1661" as="targetPoint" />
          </mxGeometry>
        </mxCell>
        <mxCell id="kH9MLhwengYHdYV4Ar4A-53" style="edgeStyle=orthogonalEdgeStyle;curved=1;rounded=0;orthogonalLoop=1;jettySize=auto;html=1;fontSize=12;startSize=8;endSize=8;exitX=0.5;exitY=0;exitDx=0;exitDy=0;dashed=1;" edge="1" parent="1" source="kH9MLhwengYHdYV4Ar4A-34">
          <mxGeometry relative="1" as="geometry">
            <mxPoint x="420" y="1490" as="targetPoint" />
            <Array as="points">
              <mxPoint x="348" y="1550" />
              <mxPoint x="421" y="1550" />
            </Array>
          </mxGeometry>
        </mxCell>
        <mxCell id="kH9MLhwengYHdYV4Ar4A-34" value="线程1&lt;div&gt;（等待）&lt;/div&gt;" style="rounded=0;whiteSpace=wrap;html=1;fillColor=#bac8d3;strokeColor=#23445d;" vertex="1" parent="1">
          <mxGeometry x="310" y="1590" width="75" height="100" as="geometry" />
        </mxCell>
        <mxCell id="kH9MLhwengYHdYV4Ar4A-39" value="" style="edgeStyle=none;curved=1;rounded=0;orthogonalLoop=1;jettySize=auto;html=1;fontSize=12;startSize=8;endSize=8;" edge="1" parent="1">
          <mxGeometry relative="1" as="geometry">
            <mxPoint x="535" y="1630" as="sourcePoint" />
            <mxPoint x="610" y="1630" as="targetPoint" />
          </mxGeometry>
        </mxCell>
        <mxCell id="kH9MLhwengYHdYV4Ar4A-54" style="edgeStyle=orthogonalEdgeStyle;curved=1;rounded=0;orthogonalLoop=1;jettySize=auto;html=1;entryX=0.5;entryY=1;entryDx=0;entryDy=0;fontSize=12;startSize=8;endSize=8;dashed=1;" edge="1" parent="1" source="kH9MLhwengYHdYV4Ar4A-36" target="kH9MLhwengYHdYV4Ar4A-32">
          <mxGeometry relative="1" as="geometry">
            <Array as="points">
              <mxPoint x="498" y="1550" />
              <mxPoint x="420" y="1550" />
            </Array>
          </mxGeometry>
        </mxCell>
        <mxCell id="kH9MLhwengYHdYV4Ar4A-36" value="线程1&lt;div&gt;（等待）&lt;/div&gt;" style="rounded=0;whiteSpace=wrap;html=1;fillColor=#bac8d3;strokeColor=#23445d;" vertex="1" parent="1">
          <mxGeometry x="460" y="1590" width="75" height="100" as="geometry" />
        </mxCell>
        <mxCell id="kH9MLhwengYHdYV4Ar4A-49" style="edgeStyle=none;curved=1;rounded=0;orthogonalLoop=1;jettySize=auto;html=1;fontSize=12;startSize=8;endSize=8;" edge="1" parent="1" source="kH9MLhwengYHdYV4Ar4A-38">
          <mxGeometry relative="1" as="geometry">
            <mxPoint x="647.5" y="1730" as="targetPoint" />
          </mxGeometry>
        </mxCell>
        <mxCell id="kH9MLhwengYHdYV4Ar4A-55" style="edgeStyle=orthogonalEdgeStyle;curved=1;rounded=0;orthogonalLoop=1;jettySize=auto;html=1;fontSize=12;startSize=8;endSize=8;exitX=0.5;exitY=0;exitDx=0;exitDy=0;dashed=1;" edge="1" parent="1" source="kH9MLhwengYHdYV4Ar4A-38">
          <mxGeometry relative="1" as="geometry">
            <mxPoint x="420" y="1490" as="targetPoint" />
          </mxGeometry>
        </mxCell>
        <mxCell id="kH9MLhwengYHdYV4Ar4A-38" value="线程1&lt;div&gt;（等待）&lt;/div&gt;" style="rounded=0;whiteSpace=wrap;html=1;fillColor=#bac8d3;strokeColor=#23445d;" vertex="1" parent="1">
          <mxGeometry x="610" y="1590" width="75" height="100" as="geometry" />
        </mxCell>
        <mxCell id="kH9MLhwengYHdYV4Ar4A-42" value="" style="edgeStyle=none;curved=1;rounded=0;orthogonalLoop=1;jettySize=auto;html=1;fontSize=12;startSize=8;endSize=8;entryX=1;entryY=0.75;entryDx=0;entryDy=0;exitX=0;exitY=0.75;exitDx=0;exitDy=0;" edge="1" parent="1">
          <mxGeometry relative="1" as="geometry">
            <mxPoint x="460" y="1661" as="sourcePoint" />
            <mxPoint x="385" y="1661" as="targetPoint" />
          </mxGeometry>
        </mxCell>
        <mxCell id="kH9MLhwengYHdYV4Ar4A-44" value="" style="edgeStyle=none;curved=1;rounded=0;orthogonalLoop=1;jettySize=auto;html=1;fontSize=12;startSize=8;endSize=8;entryX=1;entryY=0.75;entryDx=0;entryDy=0;exitX=0;exitY=0.75;exitDx=0;exitDy=0;" edge="1" parent="1">
          <mxGeometry relative="1" as="geometry">
            <mxPoint x="610" y="1661" as="sourcePoint" />
            <mxPoint x="535" y="1661" as="targetPoint" />
          </mxGeometry>
        </mxCell>
        <mxCell id="kH9MLhwengYHdYV4Ar4A-48" value="head" style="text;html=1;align=center;verticalAlign=middle;resizable=0;points=[];autosize=1;strokeColor=none;fillColor=none;fontSize=16;" vertex="1" parent="1">
          <mxGeometry x="167.5" y="1730" width="60" height="30" as="geometry" />
        </mxCell>
        <mxCell id="kH9MLhwengYHdYV4Ar4A-50" value="tail" style="text;html=1;align=center;verticalAlign=middle;resizable=0;points=[];autosize=1;strokeColor=none;fillColor=none;fontSize=16;" vertex="1" parent="1">
          <mxGeometry x="627.5" y="1730" width="40" height="30" as="geometry" />
        </mxCell>
        <mxCell id="kH9MLhwengYHdYV4Ar4A-51" value="CLH队列&lt;div&gt;（FIFO）&lt;/div&gt;" style="text;html=1;align=center;verticalAlign=middle;resizable=0;points=[];autosize=1;strokeColor=none;fillColor=none;fontSize=16;" vertex="1" parent="1">
          <mxGeometry x="15" y="1620" width="90" height="50" as="geometry" />
        </mxCell>
      </root>
    </mxGraphModel>
  </diagram>
</mxfile>
